<svg id="Layer_1" xmlns="http://www.w3.org/2000/svg" viewBox="0 0 76.2 76.2"><style>.st0{fill:#a4c639}</style><path class="st0" d="M10.8 24.9c-2.6 0-4.7 2.1-4.7 4.7V49c0 2.6 2.1 4.7 4.7 4.7s4.7-2.1 4.7-4.7V29.5c0-2.6-2.1-4.6-4.7-4.6zm54.5 0c-2.6 0-4.7 2.1-4.7 4.7V49c0 2.6 2.1 4.7 4.7 4.7S70 51.6 70 49V29.5c0-2.6-2.1-4.6-4.7-4.6zm-17-17.6l3.3-5.9c.2-.3.1-.7-.3-.9-.1-.1-.2-.1-.3-.1-.2 0-.5.1-.6.3l-3.3 6c-2.7-1.2-5.8-1.9-9-1.9s-6.3.7-9 1.9l-3.3-6c-.1-.2-.4-.3-.6-.3-.1 0-.2 0-.3.1-.3.2-.4.6-.3.9l3.3 5.9c-6.3 3.3-10.6 9.6-10.6 16.7H59c-.1-7.2-4.4-13.4-10.7-16.7zm-19.8 9.1c-1 0-1.7-.8-1.7-1.7 0-1 .8-1.7 1.7-1.7 1 0 1.7.8 1.7 1.7 0 .9-.8 1.7-1.7 1.7zm19.2 0c-1 0-1.7-.8-1.7-1.7 0-1 .8-1.7 1.7-1.7 1 0 1.7.8 1.7 1.7 0 .9-.8 1.7-1.7 1.7zM17.2 55.9c0 2.8 2.2 5 5 5h3.3v10.3c0 2.6 2.1 4.7 4.7 4.7s4.7-2.1 4.7-4.7V60.9h6.2v10.3c0 2.6 2.1 4.7 4.7 4.7s4.7-2.1 4.7-4.7V60.9h3.3c2.8 0 5-2.2 5-5V25.7H17.2v30.2z"/></svg>