<svg xmlns="http://www.w3.org/2000/svg" viewBox="0 0 105.3 119.4"><path fill="#0A71B9" d="M0 0h105.3l-9.4 107.6-43.3 11.8-43.2-11.8z"/><path fill="#28A7DE" d="M52.6 8.9h43.9l-8.4 91.7-35.5 10.2z"/><path fill="#EBEBEB" d="M79.8 22.2H19.7L21 35.3h50.2l-1.6 13.2H22.2l1.2 12.9h45.5l-1.7 17.8-14.8 3.6-14.5-3.6-.8-10.6h-13l2 21.3L53 97.2l26.8-7.3 6.3-67.7z"/><path fill="none" d="M69.6 48.5l1.6-13.2H52.9v13.2zm-2.4 30.7l1.7-17.8h-16v21.2z"/><path fill="#FFF" d="M79.7 22.2H52.6v13.1h18.5l-1.6 13.2H52.6v12.9h16.2l-1.7 17.8-14.5 3.4v14.6h.2l26.9-7.3 6.4-67.7z"/></svg>