<svg id="Layer_1" xmlns="http://www.w3.org/2000/svg" viewBox="0 0 136.9 155.4"><style>.st0{fill:#e34f26}.st1{fill:#ef652a}.st2{fill:#ebebeb}.st3{fill:#fff}</style><title>badge-html5</title><title>badge-html5</title><g id="Page-1_12_"><g id="badge-html5"><path id="Shape_16_" class="st0" d="M12.4 139.6L0 0h136.9l-12.4 139.6-56.2 15.8"/><path id="Shape_15_" class="st1" d="M68.6 143.3l45.2-12.5 10.7-119.6H68.6"/><path id="Shape_14_" class="st2" d="M68.6 63.1H45.8l-1.5-17.6h24.3v-17H25.5l.3 4.6L30 80.5h38.6V63.1zm0 44.7h-.3l-19.1-5.2L48 88.9H31l2.1 27 35.2 9.7h.3v-17.8z"/><path id="Shape_13_" class="st3" d="M68.3 63.1v17.3h21.2l-2.1 22.2-19.1 5.2v17.9l35.2-9.7.3-3 3.9-45.2.6-4.6h-40zm0-34.6v17h41.6l.3-3.6.9-8.8.3-4.6H68.3z"/></g></g></svg>