<svg xmlns="http://www.w3.org/2000/svg" width="708.661" height="857.815"><path d="M378.22 20c-5.214-.01-10.654.21-16.327.662-143.37 11.546-105.347 163.01-107.475 213.73-2.618 37.09-10.138 66.32-35.648 102.582-29.97 35.64-72.165 93.324-92.154 153.37-9.434 28.34-13.923 57.226-9.777 84.564a59.264 59.264 0 0 0-3.71 3.636c-8.8 9.394-15.302 20.777-22.546 28.44-6.769 6.752-16.412 9.32-27.009 13.122-10.6 3.803-22.24 9.41-29.305 22.968 0 0 0 .005-.005.007l-.036.067c-6.395 11.945-4.494 25.701-2.54 38.446 1.953 12.745 3.93 24.788 1.305 32.96-8.39 22.931-9.46 38.794-3.555 50.3 5.92 11.53 18.089 16.62 31.843 19.492 27.51 5.745 64.763 4.318 94.124 19.879l2.524-4.762-2.498 4.776c31.432 16.434 63.298 22.27 88.721 16.464 18.432-4.21 33.395-15.186 41.08-32.074 19.885-.098 41.705-8.52 76.658-10.444 23.713-1.91 53.334 8.42 87.406 6.528.89 3.697 2.18 7.252 3.944 10.631l.053.103c13.208 26.412 37.75 38.492 63.903 36.428 26.188-2.066 54.031-17.508 76.538-44.293l-4.126-3.467 4.158 3.43c21.452-26.013 57.06-36.799 80.67-51.04 11.806-7.12 21.385-16.035 22.125-28.985.74-12.943-6.86-27.448-24.332-46.844l-.005-.005-.02-.024c-5.742-6.488-8.48-18.512-11.424-31.317-2.941-12.797-6.224-26.602-16.73-35.548l-.064-.054c-4.181-3.643-8.527-6.116-12.902-7.778 14.607-43.321 8.876-86.458-5.87-125.44-18.096-47.84-49.69-89.526-73.818-118.043-27.008-34.067-53.424-66.41-52.903-114.18.804-72.907 8.02-208.111-120.275-208.286zm17.37 112.32c7.28 0 13.497 2.135 19.884 6.77 6.488 4.71 11.162 10.605 14.93 18.837 3.697 8.024 5.476 15.872 5.65 25.186 0 .244 0 .453.07.698.07 9.558-1.57 17.685-5.197 25.988-2.07 4.737-4.447 8.713-7.293 12.155a57.085 57.085 0 0 0-3.01-1.337c-7.212-3.09-12.745-5.055-17.356-6.655 1.671-2.01 3.063-4.393 4.287-7.372 1.85-4.5 2.756-8.895 2.93-14.127 0-.21.07-.384.07-.628.105-5.023-.558-9.314-2.023-13.71-1.535-4.604-3.488-7.918-6.314-10.673-2.825-2.756-5.65-4.012-9.035-4.117-.158-.01-.316-.01-.473-.01-3.182.01-5.946 1.102-8.806 3.495-3 2.512-5.232 5.721-7.08 10.186-1.85 4.465-2.757 8.896-2.931 14.163-.035.21-.035.384-.035.593-.06 2.895.124 5.548.57 8.123-6.512-3.245-12.65-5.457-18.41-6.828a71.492 71.492 0 0 1-.578-7.748v-.733c-.105-9.523 1.465-17.686 5.127-25.988 3.663-8.302 8.198-14.267 14.582-19.116 6.383-4.849 12.662-7.081 20.092-7.151h.348zm-99.642 7.89c4.829.011 9.15 1.625 13.62 5.194 4.85 3.872 8.512 8.826 11.582 15.802 3.07 6.977 4.709 13.954 5.162 22.186v.07c.22 3.457.193 6.712-.08 9.864-.954.271-1.89.565-2.807.88-5.208 1.793-9.797 4.236-13.797 6.877.391-2.763.45-5.566.15-8.692-.036-.174-.036-.314-.036-.488-.418-4.151-1.29-7.64-2.755-11.163-1.57-3.662-3.314-6.244-5.616-8.232-2.087-1.802-4.058-2.63-6.227-2.613a8.24 8.24 0 0 0-.68.031c-2.442.21-4.465 1.396-6.384 3.733-1.919 2.337-3.174 5.232-4.081 9.07-.907 3.837-1.151 7.604-.768 11.93 0 .174.035.314.035.488.419 4.186 1.256 7.674 2.756 11.197 1.535 3.628 3.314 6.21 5.616 8.198.386.333.767.632 1.147.9a258.357 258.357 0 0 1-5.5 4.134c-1.26.923-2.758 2.023-4.5 3.307-3.8-3.559-6.764-8.032-9.356-13.922-3.07-6.977-4.709-13.954-5.197-22.186v-.07c-.454-8.232.349-15.313 2.616-22.639 2.267-7.325 5.302-12.627 9.697-16.988 4.396-4.36 8.826-6.558 14.163-6.837.417-.023.83-.033 1.24-.031zm45.316 57.113c11.225-.043 24.732 3.637 41.085 14.151 10.044 6.532 17.86 7.078 35.858 14.786l.021.01.022.01c8.66 3.552 13.742 8.183 16.225 13.06 2.484 4.876 2.544 10.164.466 15.728-4.157 11.126-17.425 22.835-36.044 28.65l-.018.008-.016.008c-9.079 2.95-16.996 9.463-26.329 14.8-9.332 5.336-19.893 9.64-34.253 8.81-12.224-.712-19.532-4.862-26.14-10.173-6.607-5.31-12.365-11.981-20.796-16.932l-.022-.013-.022-.013c-13.58-7.677-20.995-16.555-23.322-24.252-2.327-7.697-.143-14.266 6.595-19.316 7.576-5.678 12.838-9.54 16.344-12.112 3.482-2.556 4.93-3.514 6.04-4.579.006-.009.012-.012.017-.017l.005-.01c5.693-5.387 14.766-15.204 28.444-19.912a48.839 48.839 0 0 1 15.84-2.69zm78.492 46.422c-4.844.29-9.917 2.783-15.824 6.081-5.907 3.298-12.55 7.516-19.748 11.67-14.398 8.31-30.971 16.255-47.442 16.255-16.496 0-29.675-7.619-39.56-15.452-4.943-3.917-9.022-7.862-12.281-10.914-1.63-1.526-3.043-2.827-4.362-3.843-1.318-1.016-2.392-2.023-4.598-2.023l-.106 4.636c-.158 1.552-.32 1.504-.256 1.546.103.068.615.244 1.212.704.97.747 2.316 1.965 3.913 3.46 3.194 2.992 7.439 7.104 12.665 11.246 10.451 8.282 24.986 16.78 43.373 16.78 18.413 0 35.834-8.607 50.511-17.077 7.34-4.235 14.004-8.463 19.672-11.627 5.668-3.164 10.436-5.148 13.197-5.313l-.366-6.129zm16.366 22.035c12.23 48.207 40.674 117.837 58.955 151.818 9.718 18.028 29.05 56.333 37.403 102.482 5.292-.162 11.12.607 17.36 2.203 21.839-56.615-18.518-117.597-36.972-134.58-7.45-7.23-7.809-10.469-4.115-10.316 20.022 17.706 46.306 53.32 55.87 93.517 4.36 18.329 5.29 37.598.61 56.615a157.75 157.75 0 0 1 6.971 3.1c35.055 17.07 48.02 31.914 41.786 52.172a102.135 102.135 0 0 0-6.043-.016l-.55.014c5.077-16.058-6.169-27.902-36.135-41.46-31.08-13.675-55.848-12.315-60.034 15.418a61.075 61.075 0 0 0-.647 4.434 45.996 45.996 0 0 0-6.998 3.117c-14.594 7.985-22.56 22.475-26.99 40.247-4.427 17.758-5.697 39.226-6.918 63.358v.012c-.747 12.135-5.736 28.547-10.796 45.93-50.915 36.32-121.58 52.055-181.579 11.109-4.066-6.432-8.73-12.805-13.531-19.091-3.066-4.014-6.215-8.003-9.346-11.937 6.159.005 11.394-1.004 15.625-2.922 5.262-2.386 8.959-6.218 10.788-11.138 3.658-9.839-.016-23.72-11.727-39.57-11.71-15.849-31.54-33.736-60.682-51.608 0 0-.005 0-.005-.005-21.41-13.32-33.382-29.645-38.986-47.37-5.605-17.727-4.82-36.896-.5-55.82 8.291-36.327 29.594-71.657 43.187-93.829 3.66-2.693 1.307 4.998-13.76 32.979-13.505 25.582-38.75 84.62-4.184 130.705.923-32.796 8.756-66.245 21.904-97.531 19.152-43.413 59.21-118.696 62.392-178.698 1.64 1.191 7.277 4.994 9.789 6.423.005.008.011.008.016.009 7.349 4.327 12.868 10.653 20.017 16.398 7.162 5.757 16.11 10.728 29.628 11.516 15.78.913 27.805-3.974 37.658-9.608 9.838-5.626 17.697-11.851 25.143-14.282.012-.008.023-.008.034-.01 15.734-4.92 28.244-13.629 35.363-23.786zm99.934 275.987c6.373-.03 14.093 2.095 22.544 5.875 22.743 10.5 29.86 19.5 23.65 32.72-5.232 9.977-27.627 25.85-42.976 21.663-15.662-4.046-23.302-26.616-20.755-43.674 1.364-11.583 7.915-16.54 17.537-16.584zm-25.733 31.171c1.286 20.86 11.606 42.134 29.858 46.738 19.973 5.263 48.77-11.875 60.93-25.853 2.424-.097 4.794-.216 7.096-.271 10.665-.258 19.61.351 28.75 8.345l.032.027.032.027c7.024 5.95 10.362 17.196 13.258 29.793 2.895 12.598 5.21 26.318 13.894 36.092l.013.014.012.014c16.695 18.526 22.06 31.048 21.604 39.04-.457 7.993-6.244 13.926-16.93 20.37-21.361 12.885-59.211 24.089-83.387 53.373-20.993 24.982-46.59 38.703-69.135 40.482-22.543 1.78-41.993-7.577-53.46-30.593l-.026-.052-.027-.051c-7.114-13.532-4.15-34.888 1.842-57.414 5.992-22.527 14.602-45.656 15.755-64.456v-.058c1.22-24.087 2.567-45.123 6.614-61.353 4.046-16.23 10.417-27.223 21.706-33.4a42.386 42.386 0 0 1 1.566-.815zm-366.59 1.574c1.686.007 3.469.148 5.368.435 12.779 1.936 23.922 10.87 34.658 25.432s20.726 34.44 30.995 56.49l.013.027.012.026c8.252 17.224 25.666 36.163 40.423 55.483 14.757 19.32 26.178 38.714 24.69 53.557l-.006.064-.005.065c-1.924 25.315-16.205 39.097-38.127 44.104-21.915 5.005-51.625.016-81.3-15.493l-.025-.014c-32.83-17.388-71.887-15.661-96.94-20.894-12.53-2.617-20.706-6.551-24.459-13.861-3.752-7.31-3.836-20.064 4.138-41.81l.035-.096.032-.097c3.944-12.165 1.025-25.475-.89-37.968-1.914-12.493-2.85-23.857 1.415-31.777l.02-.037.02-.037c5.461-10.528 13.473-14.292 23.416-17.859 9.943-3.567 21.733-6.369 31.044-15.7l.048-.049.048-.05c8.607-9.08 15.072-20.461 22.64-28.54 6.384-6.816 12.773-11.333 22.403-11.4h.336z" style="line-height:normal;-inkscape-font-specification:'Bitstream Vera Sans';text-indent:0;text-align:start;text-decoration-line:none;text-transform:none;block-progression:tb;marker:none" color="#000" font-weight="400" font-family="Bitstream Vera Sans" overflow="visible"/><path d="M509.242 573.308c-10.063 4.231-16.303 14.377-19.9 24.291-8.726 25.369-7.453 52.65-10.573 78.888-4.54 27.695-16.08 53.943-19.876 81.845-.303 10.77-1.842 22.34 3.405 32.265 7.994 15.987 23.42 29.526 41.83 30.798 25.839 2.614 50.736-10.154 69.139-27.42 13.822-13.994 26.766-29.4 44.154-39.205 19.152-11.787 40.805-19.309 59.319-32.22 6.892-4.715 11.495-13.354 8.957-21.724-4.032-16.051-17.428-26.97-25.752-40.56-9.358-17.208-8.041-38.524-19.13-54.975-8.709-11.607-24.82-13.904-38.311-11.804-5.117 1.89-8.146 7.12-12.83 9.853-14.457 10.418-32.424 19.539-50.562 15.266-15.315-4.63-23.477-20.417-26.637-35.051-1.432-3.17.046-7.424-2.275-10.094-.291-.156-.634-.19-.958-.153z" fill="#ffd300"/><path d="M509.595 573.264c-21.091 8.645-23.01 35.162-26.411 54.64-3.123 32.567-6.386 65.048-16.678 96.281-5.492 24.264-15.501 53.606 1.72 75.573 11.016 16.188 31.044 24.853 50.371 21.07 37.226-2.225 59.661-36.191 86.765-57.037 23.315-19.524 55.44-25.826 77.102-47.315 10.197-15.042-4.684-31.559-12.921-43.654-18.87-19.13-15.494-48.669-30.961-69.558-9.43-10.802-27.074-12.802-39.788-7.482-16.923 14.14-39.235 27.46-61.982 21.596-15.549-8.277-24.578-26.384-25.641-43.498-.387-.446-.993-.664-1.576-.616zm-366.198 1.474c-21.98 1.49-31.083 25.744-45.455 38.952-15.68 16.396-45.997 14.284-55.34 37.296-6.075 24.452 8.516 49.955-2.08 73.816-4.035 14.113-8.702 35.712 7.86 43.815 34.028 12.485 72.276 8.16 105.587 23.65 25.897 11.543 53.612 23.712 82.688 18.47 25.391-1.747 46.32-25.845 42.776-51.41-4.664-28.015-27.057-48.497-42.829-70.75-27.468-31.48-35.91-76.01-67.89-103.906-7.06-5.907-15.923-10.262-25.317-9.933zM340.806 196.4c-12.735-.004-24.933 5.516-34.492 13.721-6.223 5.335-12.05 11.162-18.874 15.764-5.726 4.404-11.881 8.35-17.07 13.397-4.618 4.925-5.286 12.468-2.682 18.526 3.296 8.403 10.317 14.701 17.567 19.74 6.948 4.216 13.66 8.856 19.553 14.485 7.624 6.97 16.234 13.828 26.74 15.49 7.148 1.268 14.547.914 21.676-.295 12.87-2.677 23.78-10.376 34.774-17.14 5.272-3.47 11.286-5.403 17.13-7.636 12.097-5.077 23.925-13.059 29.838-25.152 3.37-6.646 3.272-15.197-1.425-21.201-6.191-8.197-16.468-11.366-25.637-14.96-8.965-3.356-18.383-5.893-26.4-11.323-12.19-7.611-26.09-13.552-40.698-13.416zm77.997 48.437c.349 1.353.134 2.828.203 4.226-7.775 1.738-14.344 6.589-21.22 10.36-15.653 9.17-31.538 19.099-49.658 22.415-5.938.967-12.25.974-18.347.648-11.808-1.385-22.974-6.578-32.445-13.709-7.394-5.258-13.712-11.81-20.637-17.624.352-1.437-.031-3.438.387-4.526 4.53 2.313 7.69 6.356 11.598 9.562 8.952 8.359 19.083 15.802 30.835 19.652 5.682 2.125 11.752 2.864 17.793 2.606 10.419.387 20.53-3.08 29.96-7.18 15.027-6.652 28.53-16.254 43.105-23.693 2.668-1.245 5.48-2.408 8.426-2.737z" fill="#fb0"/><path d="M535.446 540.972c-7.043-.193-14.037 4.122-16.234 10.962-3.04 9.198-2.376 19.392.335 28.597 3.138 9.753 9.502 20.04 20.163 22.495 11.123 2.02 22.163-3.218 30.999-9.55 7.024-5.28 14.554-12.267 14.545-21.76-.234-8.774-8.003-14.625-14.811-18.821-10.66-6.095-22.458-11.868-34.997-11.923z"/><path d="M339.894 195.633c-14.443-.065-27.746 7.561-38.043 17.18-9.862 9.056-21.22 16.347-31.266 25.203-6.712 5.856-6.579 16.405-2.094 23.556 6.213 10.945 17.51 17.246 27.434 24.318 9.72 7.342 18.064 17.13 29.978 21.041 9.511 3.21 19.943 2.688 29.644.65 14.502-3.792 26.362-13.588 39.493-20.162 10.335-4.123 21.05-8.152 29.516-15.675 5.82-5.263 11.554-11.716 13.004-19.67.636-5.496.71-11.633-3.159-16.063-7.499-10.187-20.534-13.29-31.697-17.698-8.2-2.856-16.32-6.075-23.543-10.977-11.937-6.757-25.278-12.363-39.267-11.703zm78.178 50.288c.025 1.176.511 2.907-1.248 2.737-12.706 5.03-23.967 13.083-36.022 19.352-13.26 7.413-27.688 13.796-43.123 13.61-14.882.974-29.071-5.598-40.768-14.309-6.545-5.135-12.71-10.73-18.975-16.196-.146-1.773-.304-3.967 1.606-1.709 11.483 9.813 22.485 21.02 36.993 26.287 9.759 4.253 20.64 4.032 31.005 2.874 20.183-3.932 37.479-15.837 55.136-25.691 4.893-2.638 9.995-5.881 15.396-6.955z" fill="#ff9c00"/></svg>