<svg height="1130.9" viewBox="0 0 1130.8002 1130.9" width="1130.8" xmlns="http://www.w3.org/2000/svg" xmlns:xlink="http://www.w3.org/1999/xlink"><clipPath id="a"><path d="m1088.7 1165.5h-977.4c-42.4 0-76.7-34.4-76.7-76.7v-977.5c0-42.4 34.4-76.7 76.7-76.7h977.4c42.4 0 76.7 34.4 76.7 76.7v977.4c.1 42.4-34.3 76.8-76.7 76.8z" height="100%" width="100%"/></clipPath><linearGradient id="b" gradientUnits="userSpaceOnUse" x1="426.674" x2="1284.413" y1="482.499" y2="1239.984"><stop offset="0" stop-color="#f77122"/><stop offset="1" stop-color="#d6560a"/></linearGradient><linearGradient id="c" gradientUnits="userSpaceOnUse" x1="1128.991" x2="-496.291" y1="-135.804" y2="788.155"><stop offset="0" stop-color="#d6560a"/><stop offset="1" stop-color="#f77122"/></linearGradient><g transform="translate(-34.6 -34.6)"><g clip-path="url(#a)"><path d="m1866 495-1292.4 1401.7-661.5-610.1 1292.4-1401.6z" fill="url(#b)"/><path d="m1225.5-94-1292.4 1401.6-577.2-532.1 1292.5-1401.6z" fill="url(#c)"/><path d="m-143.7-143.6h785v1906.5h-785z" fill="#c24411" opacity=".28" transform="matrix(.96584899 -.25910563 .25910563 .96584899 -201.320508 92.131979)"/></g><g fill="#fff"><path d="m384.9 900.1h-139.5v-45.3h85.6v-509.6h-85.6v-45.3h139.5z"/><path d="m745.7 463c-16.1 60.4-35 118.2-56.7 173.6s-42.7 105-62.9 148.8h-52.1c-20.3-43.8-41.2-93.4-62.9-148.8s-40.6-113.2-56.7-173.6h62c5 20.3 10.8 41.9 17.7 64.8s14 45.7 21.7 68.2c7.6 22.5 15.4 44.3 23.2 65.4s15.3 39.9 22.3 56.4c7-16.5 14.5-35.3 22.3-56.4s15.6-42.9 23.2-65.4 14.9-45.3 21.7-68.2 12.7-44.5 17.7-64.8z"/><path d="m815.1 299.9h139.5v45.3h-85.6v509.6h85.6v45.3h-139.5z"/></g></g></svg>