<svg viewBox="0 0 895.39 2000" xmlns="http://www.w3.org/2000/svg"><g transform="translate(-2.3 -.5)"><path d="m454.69 1494.67c-10.33 131.42-25.17 227.34-39.76 260.8 0 0-2.06-1.41-5.77-4.12 36.65 85.35 33 231.39 33 231.39l53.58 17.76s-10.88-141.69 4.29-210.2c4.59-20.72 15.16-38.85 27.64-54.08-2 1.39-3.06 2.09-3.06 2.09-52.4-24.14-67.61-137.72-69.92-243.64z" fill="#c2bfbf"/><path d="m881.14 793.69c-105-463.24-353-615.51-379.68-673.66-29.34-41.14-58.88-114.03-58.88-114.03v1c24.85 96 20.64 870.61 23.42 963.39 5.85 194 0 380.42-11.34 524.28 2.29 105.92 17.51 219.5 70 243.65 0 0 1.06-.7 3.06-2.09 8.26-5.76 32.72-23.54 65.35-53.44l2.31-2.11c125.72-116.03 367.62-408.37 285.76-886.99z" fill="#599636"/><path d="m454.69 1494.67c11.31-143.86 17.19-330.26 11.31-524.28-2.78-92.78 1.43-867.39-23.41-963.39a40.51 40.51 0 0 0 -2.14-6.5c-3 40.89-4.61 56.87-43.45 98.32-60.07 47-368.52 305.72-393.65 832-23.43 490.77 354.58 783.18 405.81 820.53 3.72 2.71 5.77 4.12 5.77 4.12 14.59-33.47 29.44-129.38 39.76-260.8z" fill="#69b240"/></g></svg>