<svg xmlns="http://www.w3.org/2000/svg" width="429.035" height="420.001" viewBox="0 0 429.035 420.001"><path d="M415.342 334.341c.099-.9.099-1.799.199-2.598-4.997-5.798-9.295-12.295-14.992-17.392-24.088-21.39-49.875-40.08-80.461-51.275-7.396-2.698-12.093-7.296-15.292-14.093-8.396-17.792-17.091-35.483-25.387-53.374-6.897-14.793-12.194-30.485-20.291-44.578-20.99-36.882-49.575-67.067-84.358-91.655-24.788-17.49-50.776-30.985-82.16-31.184-4.698 0-9.896-3.099-13.993-6.098C61.415 10.1 43.724-.294 21.935.006 9.04.206-.753 9.801.045 22.694c.4 6.896 2.8 14.293 6.298 20.19 5.897 9.895 13.793 18.49 20.29 28.086 3.998 5.896 7.496 12.294 9.995 18.991 4.998 12.694 8.196 26.187 13.893 38.581 5.297 11.395 12.994 21.69 19.19 32.684 1.4 2.5 2.1 6.297 1.2 8.996-8.695 28.586-14.593 57.372-7.696 87.257 3.698 16.192 9.295 31.484 22.189 42.78 11.994 10.394 25.888 5.597 29.386-9.896.599-2.798.899-5.697 1.399-8.496 1.199-6.897 2.499-13.793 3.798-21.19 8.296 13.094 14.893 25.987 23.888 36.982 9.096 11.095 20.59 20.19 31.085 30.086.5-.5.899-1 1.399-1.4-23.588-30.485-42.58-63.568-55.673-99.75-20.89 16.691-19.291 41.18-23.188 63.768-8.196-1.699-11.694-7.096-14.393-13.093-13.394-29.686-14.094-59.87-4.1-90.655 2-6.197 4.799-12.295 5.499-18.592.5-4.198-.7-10.195-3.5-12.993-12.292-12.394-19.29-27.586-23.787-43.878-6.896-24.988-17.891-47.577-34.982-67.167-3.1-3.599-6.197-7.696-7.497-12.194-1.3-4.398-2-10.396-.1-14.093C17.137 12.9 23.234 13.5 28.33 15.3c15.292 5.297 29.985 11.594 42.679 21.89 3.599 2.898 8.796 4.797 13.494 5.396 14.293 1.8 28.886 1.2 42.28 7.996 8.095 4.198 16.49 7.896 24.288 12.595 47.277 28.985 82.459 68.366 103.949 120.041 10.695 25.688 23.289 50.576 35.282 75.762 3.798 7.996 9.396 14.693 18.69 16.793 30.486 6.696 54.974 24.788 79.762 42.18 2.898 1.998 5.297 4.896 8.995 8.494-3.698.301-5.097.601-6.497.601-19.39-.3-38.181 2.898-56.472 9.695-5.896 2.198-8.096 4.598-4.397 10.295 2.299 3.598 4.098 7.696 6.696 10.995 10.795 13.793 25.388 22.49 40.38 30.785 14.093 7.696 27.787 16.192 41.48 24.488 3.098 1.8 5.597 4.498 8.396 6.696.6-.6 1.199-1.199 1.699-1.799-4.498-5.098-9.195-9.896-13.393-15.192-12.494-15.692-27.486-28.187-45.078-37.78-4.397-2.4-8.496-5.499-12.294-8.798-2.5-2.198-4.198-5.297-7.196-9.095 22.687-4.7 43.477-8.798 64.268-12.996zM102.495 98.157c6.397-6.597 6.997-12.794 2.199-19.39-4.997-6.898-10.395-8.197-17.491-4.399a7281.544 7281.544 0 0 0 15.292 23.79z" fill="#008cdb"/></svg>