<svg viewBox="0 0 102 102" xmlns="http://www.w3.org/2000/svg"><g fill="#c00"><path d="m1 86.6 10 .8.4-11.1-10-.5zm19-37.6-8.4-3.4-3.1 8.3 8.2 3.1zm14-22-6.3-6.1-5.8 6.4 6.3 5.7zm18.1-15.4-3.7-6.7-6.5 3.8 3.7 6.4zm19.8-3.8-.9-6.9-6.3.7.6 6.6zm24 4.5-5.5-3.1-1.3 2.5 5.6 3.4zm-38 73.9 2.6 7.1h8.6l-3.1-7.1zm-3.3-16.5 6.7 2.3v-5.4l-6.7-2.6zm7.4-21-5.9-2.6v7.6l5.9 2.7zm6.3-13.2-4.8-2.2v6.3l4.8 2.1zm5.4-5.4 3.9 1.7v-5.1l-3.9-1.7zm13.7-3.2 5.9.1v-3.3l-5.9-.4z"/><path d="m100.6 23.3c-26.9-28.9-56-3.8-56-3.8-31.8 31.3-32 81.6-32 81.6h47.4c-16.6-39.5.5-67.7.5-67.7 15.1-21.7 37.4-8.4 37.4-8.4 4.7 1.3 2.7-1.7 2.7-1.7z"/></g></svg>