<svg xmlns="http://www.w3.org/2000/svg" preserveAspectRatio="xMidYMid" width="355.74" height="280.28" viewBox="0 0 355.73999 280.28" id="svg220"><defs id="defs222"><style id="style224">.cls-1{fill:#ce0000}.cls-1,.cls-2,.cls-3,.cls-4,.cls-5,.cls-6{fill-rule:evenodd}.cls-2{fill:#7c0000}.cls-3{fill:#f87274}.cls-4{fill:#fb191d}.cls-5{fill:#cc0001}.cls-6{fill:#900000}</style></defs><g id="g226" transform="translate(0 .015)"><path d="M111.649 80.84H244.9l-67.814 199.425L111.649 80.84z" class="cls-1" id="path228" fill="#ce0000" fill-rule="evenodd"/><path d="M244.173 79.974h111.505L177.1 279.495l67.073-199.521z" class="cls-2" id="path230" fill="#7c0000" fill-rule="evenodd"/><path d="M112.337 80.744H.832L177.1 279.495 112.337 80.744z" class="cls-3" id="path232" fill="#f87274" fill-rule="evenodd"/><path d="M59.29.755l53.9 80.85L177.1.755H59.29z" class="cls-3" id="path234" fill="#f87274" fill-rule="evenodd"/><path d="M177.1.755l66.22 80.85L294.14.755H177.1z" class="cls-4" id="path236" fill="#fb191d" fill-rule="evenodd"/><path d="M243.152 80.743L294.057-.015l61.683 80.758H243.152z" class="cls-5" id="path238" fill="#cc0001" fill-rule="evenodd"/><path d="M0 80.835L59.311.755l54.649 80.08H0z" class="cls-4" id="path240" fill="#fb191d" fill-rule="evenodd"/><path d="M112.427 80.84L177.079-.015l67.023 80.855H112.427z" class="cls-6" id="path242" fill="#900000" fill-rule="evenodd"/></g></svg>