<svg xmlns="http://www.w3.org/2000/svg" viewBox="0 0 1060.6 1200" width="1060.6" height="1200"><title>icon-square-big</title><path d="M530.3 0l530.3 300v600l-530.3 300L0 900V300z" fill="#fff"/><path class="st1" d="M965.9 879.3l-418.1 236.5V931.6l260.5-143.3 157.6 91zm28.6-25.9V358.8l-153 88.3V765l153 88.4zM93 879.3l418.1 236.5V931.6L250.6 788.3 93 879.3zm-28.6-25.9V358.8l153 88.3V765l-153 88.4zm17.9-526.6L511.1 84.2v178.1L236.4 413.4l-2.1 1.2-152-87.8zm894.3 0L547.8 84.2v178.1l274.7 151.1 2.1 1.2 152-87.8z" fill="#8ed6fb"/><path d="M511.1 889.7l-257-141.3v-280l257 148.4v272.9zm36.7 0l257-141.3v-280l-257 148.4v272.9zm-18.3-283.6zM271.5 436l258-141.9 258 141.9-258 149-258-149z" fill="#1c78c0"/></svg>