<svg xmlns="http://www.w3.org/2000/svg" id="Layer_1" viewBox="0 0 395.89999 139.20001" width="395.9" height="139.2"><style id="style156">.a{fill:#c00}</style><title id="title158">rails-logo</title><g id="g160" transform="translate(-2 -.4)"><path class="a" d="M346.6 121.5v18.1h32.7c6.7 0 18.2-4.9 18.6-18.6v-7c0-11.7-9.6-18.6-18.6-18.6H363V87h32.3V68.8h-31c-8 0-18.7 6.6-18.7 18.9V94c0 12.3 10.6 18.6 18.7 18.6 22.5.1-5.4 0 15.4 0v8.8" id="path162" fill="#c00"/><path class="a" d="M171.4 117.1s17.5-1.5 17.5-24.1-21.2-24.7-21.2-24.7h-38.2v71.3h19.2v-17.2l16.6 17.2h28.4l-22.3-22.5zm-7.4-14.6h-15.3V86.2h15.4s4.3 1.6 4.3 8.1-4.4 8.2-4.4 8.2z" id="path164" fill="#c00"/><path class="a" d="M236.3 68.8h-19.5c-13.9 0-18.6 12.6-18.6 18.6v52.2h19.5v-12.5H236v12.5h18.9V87.4c0-15.2-13.8-18.6-18.6-18.6zm-.3 38.1h-18.4V89.6s0-3.9 6.1-3.9h6.7c5.4 0 5.5 3.9 5.5 3.9v17.3z" id="path166" fill="#c00"/><path class="a" id="rect168" fill="#c00" d="M263.8 68.8h20.3v70.8h-20.3z"/><path class="a" id="polygon170" fill="#c00" d="M292.4 121.3v18.3h47.5v-18.3h-27.3V68.8h-20.2z"/><path class="a" d="M9 139.6h79s-15.1-68.9 34.9-96.8c10.9-5.3 45.6-25.1 102.4 16.9 1.8-1.5 3.5-2.7 3.5-2.7s-52-51.9-109.9-46.1C89.8 13.5 54 40 33 75c-21 35-24 64.6-24 64.6z" id="path172" fill="#c00"/><path class="a" d="M9 139.6h79s-15.1-68.9 34.9-96.8c10.9-5.3 45.6-25.1 102.4 16.9 1.8-1.5 3.5-2.7 3.5-2.7s-52-51.9-109.9-46.1C89.8 13.5 54 40 33 75c-21 35-24 64.6-24 64.6z" id="path174" fill="#c00"/><path class="a" d="M9 139.6h79s-15.1-68.9 34.9-96.8c10.9-5.3 45.6-25.1 102.4 16.9 1.8-1.5 3.5-2.7 3.5-2.7s-52-51.9-109.9-46.1c-29.2 2.6-65 29.1-86 64.1C11.9 110 9 139.6 9 139.6z" id="path176" fill="#c00"/><path class="a" d="M173.6 16.5l.4-6.7c-.9-.5-3.4-1.7-9.7-3.5l-.4 6.6c3.3 1.1 6.5 2.3 9.7 3.6z" id="path178" fill="#c00"/><path class="a" d="M164.1 37.7l-.4 6.3c3.3.1 6.6.5 9.9 1.2l.4-6.2c-3.4-.7-6.7-1.1-9.9-1.3z" id="path180" fill="#c00"/><path class="a" d="M127.1 6.5h1l-2-6.1c-3.1 0-6.3.2-9.6.6l1.9 5.9c2.9-.3 5.8-.4 8.7-.4z" id="path182" fill="#c00"/><path class="a" d="M131.9 43.3l2.3 6.9c2.9-1.4 5.8-2.6 8.7-3.5l-2.2-6.6c-3.4 1-6.3 2.1-8.8 3.2z" id="path184" fill="#c00"/><path class="a" d="M86.5 17L82 10.1c-2.5 1.3-5.1 2.7-7.8 4.3l4.6 7c2.6-1.6 5.1-3.1 7.7-4.4z" id="path186" fill="#c00"/><path class="a" d="M107 62l4.8 7.2c1.7-2.5 3.7-4.8 5.9-7.1l-4.5-6.8c-2.3 2.1-4.4 4.4-6.2 6.7z" id="path188" fill="#c00"/><path class="a" d="M92.5 94.2l8.1 6.4c.4-3.9 1.1-7.8 2.1-11.7l-7.2-5.7c-1.3 3.7-2.2 7.4-3 11z" id="path190" fill="#c00"/><path class="a" d="M48.7 46.7l-7.1-6.2c-2.6 2.5-5.1 5-7.4 7.5l7.7 6.6c2.1-2.7 4.4-5.4 6.8-7.9z" id="path192" fill="#c00"/><path class="a" d="M18.5 91.4L7 87.2c-1.9 4.3-4 9.3-5 12l11.5 4.2c1.3-3.4 3.4-8.3 5-12z" id="path194" fill="#c00"/><path class="a" d="M91 119.6c.2 5.3.7 9.6 1.2 12.6l12 4.3c-.9-3.9-1.8-8.3-2.4-13L91 119.6z" id="path196" fill="#c00"/></g></svg>