<svg viewBox=".3 .1 137.7 149.3" xmlns="http://www.w3.org/2000/svg"><g fill="#47848f"><path d="m48.8 32.2c-19.5-3.6-34.9.2-41.1 10.8-4.6 7.9-3.3 18.5 3.2 29.7.5 1 1.8 1.3 2.7.7 1-.5 1.3-1.8.7-2.7-5.8-10.1-6.9-19.2-3.2-25.7 5.1-8.8 18.9-12.2 36.9-8.9 1.1.2 2.1-.5 2.3-1.6s-.4-2.1-1.5-2.3zm-27.7 54.2c7.9 8.7 18.1 16.8 29.8 23.5 28.3 16.3 58.4 20.7 73.3 10.6.9-.6 1.1-1.9.5-2.8s-1.9-1.1-2.8-.5c-13.3 9.1-41.9 4.9-69-10.7-11.3-6.5-21.3-14.4-28.9-22.8-.7-.8-2-.9-2.8-.1-.8.7-.9 2-.1 2.8z"/><path d="m119.4 84c12.8-15.1 17.2-30.3 11.1-40.9-4.5-7.8-14.1-11.9-26.7-12.1-1.1 0-2 .9-2 2s.9 2 2 2c11.4.1 19.6 3.7 23.3 10.1 5.1 8.8 1.1 22.4-10.7 36.3-.7.8-.6 2.1.2 2.8s2.1.6 2.8-.2zm-32.8-51.2c-11.5 2.5-23.8 7.3-35.6 14.1-29.3 16.9-48.3 41.8-45.7 59.8.2 1.1 1.2 1.8 2.3 1.7 1.1-.2 1.8-1.2 1.7-2.3-2.4-16 15.7-39.5 43.7-55.7 11.5-6.6 23.4-11.3 34.5-13.7 1.1-.2 1.8-1.3 1.5-2.4-.3-1-1.3-1.7-2.4-1.5z"/><path d="m39.3 119.2c6.7 18.6 17.6 30.1 29.9 30.1 9 0 17.2-6.1 23.7-16.9.6-.9.3-2.2-.7-2.7-.9-.6-2.2-.3-2.7.7-5.8 9.7-12.9 14.9-20.3 14.9-10.2 0-19.9-10.2-26.1-27.5-.4-1-1.5-1.6-2.6-1.2s-1.6 1.6-1.2 2.6zm61-3.6c3.5-11 5.3-23.8 5.3-37.1 0-33.1-11.6-61.7-28.1-69-1-.4-2.2 0-2.6 1s0 2.2 1 2.6c14.7 6.5 25.7 33.6 25.7 65.4 0 12.9-1.8 25.2-5.1 35.9-.3 1.1.3 2.2 1.3 2.5s2.1-.3 2.5-1.3zm37.6-2c0-5.3-4.3-9.6-9.6-9.6s-9.6 4.3-9.6 9.6 4.3 9.6 9.6 9.6c5.4 0 9.6-4.3 9.6-9.6zm-4 0c0 3.1-2.5 5.6-5.6 5.6s-5.6-2.5-5.6-5.6 2.5-5.6 5.6-5.6 5.6 2.5 5.6 5.6zm-124.1 9.6c5.3 0 9.6-4.3 9.6-9.6s-4.3-9.6-9.6-9.6-9.6 4.3-9.6 9.6 4.3 9.6 9.6 9.6zm0-4c-3.1 0-5.6-2.5-5.6-5.6s2.5-5.6 5.6-5.6 5.6 2.5 5.6 5.6-2.5 5.6-5.6 5.6z"/><path d="m69.2 19.2c5.3 0 9.6-4.3 9.6-9.6s-4.3-9.6-9.6-9.6-9.6 4.3-9.6 9.6 4.3 9.6 9.6 9.6zm0-4c-3.1 0-5.6-2.5-5.6-5.6s2.5-5.6 5.6-5.6 5.6 2.5 5.6 5.6-2.6 5.6-5.6 5.6zm1.4 70.1c-3.7.8-7.4-1.6-8.2-5.3s1.6-7.4 5.3-8.2 7.4 1.6 8.2 5.3-1.5 7.4-5.3 8.2z"/></g></svg>