<svg xmlns="http://www.w3.org/2000/svg" width="612" height="612"><path d="M0 0h612v612H0z" fill="#f0db4f"/><path d="M561.9 466c-4.5-27.9-22.7-51.4-76.6-73.2-18.7-8.6-39.6-14.8-45.8-29-2.2-8.3-2.5-12.9-1.1-17.9 4-16.2 23.4-21.3 38.7-16.6 9.9 3.3 19.3 10.9 24.9 23.1 26.4-17.1 26.4-17 44.8-28.7-6.7-10.5-10.4-15.3-14.8-19.8-15.9-17.7-37.5-26.9-72.1-26.2-6 .8-12 1.6-18 2.3-17.3 4.4-33.7 13.4-43.4 25.6-29 32.9-20.7 90.4 14.5 114.1 34.7 26.1 85.7 32 92.3 56.4 6.3 29.8-21.9 39.5-50 36.1-20.7-4.3-32.2-14.8-44.7-34-22.9 13.3-22.9 13.3-46.5 26.8 5.6 12.2 11.5 17.7 20.8 28.3 44.3 45 155.3 42.8 175.2-25.3.8-2.3 6.1-17.9 1.8-42zM332.7 281.3h-57.2c0 49.4-.2 98.5-.2 148 0 31.5 1.6 60.3-3.5 69.2-8.4 17.4-30.1 15.2-40 11.9-10.1-4.9-15.2-12-21.1-21.9-1.6-2.9-2.9-5.1-3.3-5.2l-46.5 28.5c7.7 15.9 19.1 29.7 33.7 38.6 21.8 13.1 51.1 17.1 81.8 10.1 20-5.8 37.2-17.9 46.2-36.2 13-24 10.2-53.1 10.1-85.3.3-52.6 0-105.1 0-157.7z" fill="#323330"/></svg>