<svg id="Layer_1" xmlns="http://www.w3.org/2000/svg" viewBox="0 0 102 102"><style>.st0{fill:#c00}</style><path class="st0" d="M1 86.6l10 .8.4-11.1-10-.5zM20 49l-8.4-3.4-3.1 8.3 8.2 3.1zm14-22l-6.3-6.1-5.8 6.4 6.3 5.7zm18.1-15.4l-3.7-6.7-6.5 3.8 3.7 6.4zm19.8-3.8L71 .9l-6.3.7.6 6.6zm24 4.5l-5.5-3.1-1.3 2.5 5.6 3.4zm-38 73.9l2.6 7.1h8.6L66 86.2zm-3.3-16.5l6.7 2.3v-5.4L54.6 64zm7.4-21l-5.9-2.6v7.6l5.9 2.7zm6.3-13.2l-4.8-2.2v6.3l4.8 2.1zm5.4-5.4l3.9 1.7v-5.1L73.7 25zm13.7-3.2l5.9.1v-3.3l-5.9-.4z"/><path class="st0" d="M100.6 23.3c-26.9-28.9-56-3.8-56-3.8-31.8 31.3-32 81.6-32 81.6H60c-16.6-39.5.5-67.7.5-67.7C75.6 11.7 97.9 25 97.9 25c4.7 1.3 2.7-1.7 2.7-1.7z"/></svg>