<svg id="Layer_1" data-name="Layer 1" xmlns="http://www.w3.org/2000/svg" viewBox="0 0 256 212.33"><defs><style>.cls-1{fill:#60a9dd}</style></defs><title>velocify</title><path class="cls-1" d="M256 26.66a104.79 104.79 0 0 1-30.09 8.25 52.46 52.46 0 0 0 23-29 104.68 104.68 0 0 1-33.28 12.7 52.45 52.45 0 0 0-89.28 47.79 148.74 148.74 0 0 1-108-54.75 52.48 52.48 0 0 0 16.22 70 52.42 52.42 0 0 1-23.73-6.55v.64a52.41 52.41 0 0 0 42 51.38A51.15 51.15 0 0 1 39.08 129a52 52 0 0 1-9.85-.93 52.4 52.4 0 0 0 48.94 36.37 105.1 105.1 0 0 1-65.08 22.44 105.21 105.21 0 0 1-12.5-.72 148.45 148.45 0 0 0 80.32 23.53c96.4 0 149.09-79.83 149.09-149.09 0-2.28 0-4.55-.14-6.78A106.22 106.22 0 0 0 256 26.66"/></svg>